<?xml version="1.0" ?><!DOCTYPE svg  PUBLIC '-//W3C//DTD SVG 1.1//EN'  'http://www.w3.org/Graphics/SVG/1.1/DTD/svg11.dtd'><svg enable-background="new 0 0 64 64" height="64px" id="CLOUDY" version="1.1" viewBox="0 0 64 64" width="64px" xml:space="preserve" xmlns="http://www.w3.org/2000/svg" xmlns:xlink="http://www.w3.org/1999/xlink"><g><defs><rect height="63.957" id="SVGID_1_" width="63.957" x="0.011" y="0.021"/></defs><clipPath id="SVGID_2_"><use overflow="visible" xlink:href="#SVGID_1_"/></clipPath><path clip-path="url(#SVGID_2_)" d="M41.237,18.217c-0.256,0-0.512-0.098-0.707-0.293   c-0.391-0.39-0.391-1.022,0-1.413l1.558-1.558c0.391-0.39,1.022-0.39,1.413,0c0.391,0.391,0.391,1.023,0,1.413l-1.558,1.558   C41.748,18.12,41.492,18.217,41.237,18.217z M13.025,46.846l1.558-1.558c0.39-0.391,0.39-1.022,0-1.413   c-0.391-0.391-1.023-0.391-1.413,0l-1.558,1.558c-0.39,0.39-0.39,1.022,0,1.413c0.195,0.195,0.451,0.293,0.707,0.293   S12.83,47.041,13.025,46.846z M9.208,30.899c0-0.553-0.447-1-0.999-1H6.007c-0.552,0-1,0.447-1,1c0,0.552,0.447,0.999,1,0.999   h2.202C8.761,31.898,9.208,31.452,9.208,30.899z M28.558,11.551V9.348c0-0.552-0.447-0.999-1-0.999s-1,0.447-1,0.999v2.203   c0,0.552,0.447,1,1,1S28.558,12.103,28.558,11.551z M14.583,17.924c0.39-0.39,0.39-1.022,0-1.413l-1.558-1.558   c-0.39-0.39-1.022-0.39-1.413,0c-0.39,0.391-0.39,1.023,0,1.413l1.558,1.558c0.195,0.195,0.451,0.293,0.707,0.293   S14.388,18.12,14.583,17.924z M57.905,40.668c0,4.827-3.927,8.754-8.754,8.754H27.618c-3.741,0-6.866-2.621-7.674-6.119   c-4.304-2.648-6.973-7.345-6.973-12.404c0-8.044,6.545-14.59,14.59-14.59c6.739,0,12.567,4.656,14.146,11.147   c2.487,0.714,4.647,2.326,6.031,4.588c0.498-0.091,0.959-0.134,1.413-0.134C53.979,31.91,57.905,35.839,57.905,40.668z    M19.762,40.77c0.015-0.154,0.063-0.297,0.086-0.447c0.036-0.229,0.075-0.452,0.13-0.675c0.067-0.271,0.152-0.533,0.247-0.793   c0.077-0.211,0.153-0.419,0.247-0.622c0.116-0.252,0.252-0.488,0.393-0.725c0.112-0.188,0.221-0.377,0.348-0.554   c0.162-0.225,0.343-0.432,0.527-0.639c0.143-0.16,0.278-0.326,0.434-0.475c0.205-0.195,0.429-0.366,0.655-0.54   c0.164-0.127,0.319-0.262,0.494-0.377c0.25-0.162,0.518-0.293,0.786-0.426c0.176-0.09,0.341-0.191,0.525-0.268   c0.307-0.124,0.631-0.208,0.956-0.296c0.164-0.044,0.319-0.109,0.487-0.143c0.5-0.1,1.015-0.156,1.544-0.156   c0.458,0,0.924,0.048,1.407,0.146c1.534-4.016,5.427-6.744,9.783-6.744c0.244,0,0.492,0.011,0.744,0.031   c-1.642-5.154-6.474-8.762-11.992-8.762c-6.942,0-12.591,5.648-12.591,12.591C14.969,34.766,16.768,38.402,19.762,40.77z    M55.907,40.668c0-3.728-3.031-6.759-6.756-6.759c-0.505,0-1.038,0.075-1.675,0.238c-0.45,0.104-0.921-0.098-1.134-0.511   c-1.163-2.254-3.23-3.812-5.623-4.365c-0.016-0.003-0.029-0.002-0.045-0.005c-0.328-0.074-0.639-0.128-0.935-0.166   c-0.309-0.034-0.617-0.064-0.932-0.064c-3.792,0-7.15,2.555-8.164,6.214c-0.072,0.262-0.248,0.481-0.487,0.61   c-0.12,0.063-0.251,0.102-0.383,0.115c-0.133,0.014-0.267,0-0.395-0.041c-0.641-0.203-1.217-0.3-1.762-0.3   c-3.25,0-5.894,2.645-5.894,5.896c0,0.344,0.048,0.676,0.104,1.004c0.001,0.004-0.002,0.006-0.001,0.01   c0.483,2.766,2.888,4.879,5.791,4.879h21.533C52.876,47.423,55.907,44.392,55.907,40.668z" fill="#242C35"/></g></svg>