<?xml version="1.0" ?><!DOCTYPE svg  PUBLIC '-//W3C//DTD SVG 1.1//EN'  'http://www.w3.org/Graphics/SVG/1.1/DTD/svg11.dtd'><svg enable-background="new 0 0 64 64" height="64px" id="CLOUDS" version="1.1" viewBox="0 0 64 64" width="64px" xml:space="preserve" xmlns="http://www.w3.org/2000/svg" xmlns:xlink="http://www.w3.org/1999/xlink"><g><defs><rect height="63.957" id="SVGID_1_" width="63.957" x="0.011" y="0.021"/></defs><clipPath id="SVGID_2_"><use overflow="visible" xlink:href="#SVGID_1_"/></clipPath><path clip-path="url(#SVGID_2_)" d="M49.685,27.751c-0.455,0-0.916,0.043-1.413,0.134   c-1.901-3.107-5.257-5.006-8.93-5.006c-1.356,0-2.656,0.292-3.866,0.776c-0.609-0.08-1.236-0.035-1.922,0.088   c-1.903-3.106-5.258-5.005-8.931-5.005c-4.358,0-8.25,2.728-9.783,6.744c-0.486-0.099-0.952-0.146-1.407-0.146   c-4.352,0-7.893,3.542-7.893,7.895c0,4.353,3.541,7.894,7.893,7.894h7.819c1.34,2.453,3.913,4.14,6.899,4.14h21.534   c4.827,0,8.754-3.927,8.754-8.754C58.438,31.68,54.512,27.751,49.685,27.751z M20.458,39.124h-7.025   c-3.25,0-5.894-2.645-5.894-5.895c0-3.251,2.644-5.896,5.894-5.896c0.546,0,1.107,0.096,1.763,0.303   c0.258,0.08,0.539,0.054,0.777-0.075c0.238-0.13,0.414-0.35,0.486-0.611c1.014-3.659,4.371-6.214,8.165-6.214   c3.181,0,6.068,1.763,7.535,4.6c0.05,0.095,0.112,0.18,0.185,0.251c-0.008,0.007-0.014,0.015-0.021,0.021   C32.153,25.76,32,25.927,31.842,26.09c-0.185,0.188-0.365,0.379-0.534,0.581c-0.125,0.149-0.243,0.303-0.36,0.46   c-0.187,0.25-0.361,0.51-0.525,0.778c-0.084,0.136-0.171,0.269-0.249,0.41c-0.231,0.419-0.443,0.851-0.616,1.304   c-0.486-0.099-0.951-0.146-1.407-0.146c-4.352,0-7.892,3.542-7.892,7.896c0,0.58,0.072,1.145,0.191,1.688   C20.455,39.081,20.453,39.103,20.458,39.124z M49.685,43.264H28.151c-2.414,0-4.489-1.462-5.398-3.544   c-0.328-0.752-0.495-1.542-0.495-2.349c0-3.251,2.644-5.897,5.894-5.897c0.547,0,1.108,0.096,1.764,0.302   c0.257,0.081,0.538,0.053,0.777-0.075c0.238-0.129,0.414-0.35,0.486-0.611c0.154-0.557,0.381-1.082,0.64-1.586   c0.068-0.134,0.147-0.261,0.223-0.391c0.235-0.4,0.498-0.783,0.794-1.138c0.065-0.079,0.126-0.163,0.194-0.239   c0.81-0.899,1.811-1.634,2.966-2.135c1.039-0.452,2.167-0.724,3.348-0.724c3.182,0,6.068,1.762,7.534,4.6   c0.213,0.413,0.683,0.623,1.134,0.51c0.637-0.162,1.169-0.237,1.675-0.237c3.724,0,6.755,3.032,6.755,6.759   C56.439,40.232,53.408,43.264,49.685,43.264z" fill="#242C35"/></g></svg>